<svg width="31" height="26" viewBox="0 0 31 26" fill="none" xmlns="http://www.w3.org/2000/svg">
    <path d="M27.1416 16.2103L24.8645 15.3419V14.4472L25.1917 13.9077C25.8323 12.8683 26.1722 11.67 26.1731 10.4472V9.36824C26.1731 8.32133 25.7595 7.3173 25.0233 6.57703C24.287 5.83675 23.2884 5.42087 22.2472 5.42087C21.2059 5.42087 20.2074 5.83675 19.4711 6.57703C18.7348 7.3173 18.3212 8.32133 18.3212 9.36824V10.4472C18.3222 11.67 18.662 12.8683 19.3027 13.9077L19.6299 14.4472V15.3419L18.3212 15.8288C18.0785 15.6856 17.8246 15.5624 17.5622 15.4603L14.356 14.1446V11.7761C15.2189 10.2367 15.6824 8.50361 15.7039 6.73666V5.42087C15.7039 4.025 15.1524 2.68629 14.1707 1.69926C13.189 0.712225 11.8576 0.157715 10.4693 0.157715C9.08095 0.157715 7.7495 0.712225 6.76782 1.69926C5.78613 2.68629 5.23463 4.025 5.23463 5.42087V6.73666C5.2375 8.51356 5.68771 10.2608 6.54329 11.8156V14.2367L3.33708 15.5525C2.37011 15.9304 1.53665 16.5887 0.942493 17.4438C0.348337 18.2989 0.0202906 19.3122 0 20.3551L0 23.8419C0 24.1909 0.137876 24.5256 0.383297 24.7723C0.628718 25.0191 0.96158 25.1577 1.30866 25.1577H28.7905C29.1375 25.1577 29.4704 25.0191 29.7158 24.7723C29.9612 24.5256 30.0991 24.1909 30.0991 23.8419V20.513C30.0983 19.5788 29.815 18.667 29.2868 17.8986C28.7585 17.1301 28.0104 16.5413 27.1416 16.2103ZM20.9385 9.03929C20.9385 8.69032 21.0764 8.35565 21.3218 8.10889C21.5672 7.86213 21.9001 7.7235 22.2472 7.7235C22.5943 7.7235 22.9271 7.86213 23.1725 8.10889C23.418 8.35565 23.5558 8.69032 23.5558 9.03929V10.934C23.5555 11.6065 23.3844 12.2678 23.0585 12.8551L22.6267 13.6446C22.5984 13.6965 22.5568 13.7398 22.5061 13.7699C22.4554 13.8 22.3976 13.8158 22.3388 13.8156H22.1556C22.0967 13.8158 22.0389 13.8 21.9882 13.7699C21.9376 13.7398 21.8959 13.6965 21.8677 13.6446L21.4358 12.8551C21.11 12.2678 20.9388 11.6065 20.9385 10.934V9.03929ZM7.85194 5.2235C7.85194 4.52557 8.1277 3.85621 8.61854 3.3627C9.10938 2.86918 9.7751 2.59192 10.4693 2.59192C11.1634 2.59192 11.8291 2.86918 12.32 3.3627C12.8108 3.85621 13.0866 4.52557 13.0866 5.2235V7.10508C13.0863 8.40427 12.7672 9.68331 12.1574 10.8288L11.7779 11.6314C11.6666 11.8415 11.5008 12.0173 11.298 12.1401C11.0952 12.2629 10.863 12.3281 10.6263 12.3288H10.3646C10.119 12.3379 9.87585 12.2773 9.66293 12.154C9.45001 12.0307 9.27593 11.8496 9.1606 11.6314L8.72875 10.8288C8.13719 9.67861 7.83608 8.39982 7.85194 7.10508V5.2235ZM18.3212 22.5261H2.61731V20.2235C2.61681 19.6965 2.77371 19.1814 3.0677 18.745C3.3617 18.3087 3.77923 17.9711 4.26622 17.7761L9.1606 15.8419V14.5261C9.58025 14.6793 10.0228 14.7594 10.4693 14.763C10.9157 14.7594 11.3583 14.6793 11.7779 14.5261V15.8419L16.6461 17.7103C17.1401 17.902 17.5646 18.2398 17.8637 18.6791C18.1628 19.1184 18.3223 19.6385 18.3212 20.1709V22.5261ZM27.4818 22.5261H20.9385V20.3551C20.9329 19.4295 20.6846 18.5218 20.2188 17.7235L21.5928 17.1972V16.0393C21.7647 16.0789 21.9401 16.1009 22.1163 16.1051H22.378C22.5543 16.1009 22.7297 16.0789 22.9015 16.0393V17.1972L26.2124 18.513C26.5922 18.6479 26.9214 18.8971 27.1555 19.2266C27.3896 19.5562 27.5172 19.9501 27.5211 20.3551V22.5261H27.4818Z" fill="#649B4D"/>
    </svg>
    