<svg width="27" height="24" viewBox="0 0 27 24" fill="none" xmlns="http://www.w3.org/2000/svg">
    <path d="M26.7547 8.60087L14.5144 0.347541C14.1812 0.121111 13.7873 0 13.3841 0C12.9808 0 12.5869 0.121111 12.2537 0.347541L0 8.60087L1.418 10.6675L2.67547 9.82754V22.6675C2.67547 23.0212 2.81641 23.3603 3.06729 23.6104C3.31816 23.8604 3.65842 24.0009 4.01321 24.0009H12.0396V17.3342H14.7151V24.0009H22.7415C23.0963 24.0009 23.4366 23.8604 23.6874 23.6104C23.9383 23.3603 24.0793 23.0212 24.0793 22.6675V9.82754L25.3367 10.6675L26.7547 8.60087ZM21.4038 21.3342H17.3906V16.0009C17.3906 15.6473 17.2496 15.3081 16.9988 15.0581C16.7479 14.808 16.4076 14.6675 16.0528 14.6675H10.7019C10.3471 14.6675 10.0068 14.808 9.75597 15.0581C9.50509 15.3081 9.36415 15.6473 9.36415 16.0009V21.3342H5.35094V7.85421L13.3774 2.52087L21.4038 7.85421V21.3342Z" fill="#649B4D"/>
    </svg>
    