<svg width="25" height="24" viewBox="0 0 25 24" fill="none" xmlns="http://www.w3.org/2000/svg">
    <path d="M22.8754 6H7.2238C6.90449 6 6.59826 6.12643 6.37247 6.35147C6.14668 6.57652 6.01984 6.88174 6.01984 7.2V19.2C6.01984 19.5183 6.14668 19.8235 6.37247 20.0485C6.59826 20.2736 6.90449 20.4 7.2238 20.4H19.2635L24.0793 24V7.2C24.0793 6.88174 23.9525 6.57652 23.7267 6.35147C23.5009 6.12643 23.1947 6 22.8754 6ZM21.6714 19.332L19.8895 18H8.42777V8.4H21.6714V19.332ZM12.0397 14.4H18.0595V15.6H12.0397V14.4ZM2.40793 12H3.6119V14.4H1.20397C0.884655 14.4 0.578421 14.2736 0.352634 14.0485C0.126846 13.8235 0 13.5183 0 13.2L0 1.2C0 0.88174 0.126846 0.576515 0.352634 0.351472C0.578421 0.126428 0.884655 0 1.20397 0L16.8555 0C17.1749 0 17.4811 0.126428 17.7069 0.351472C17.9327 0.576515 18.0595 0.88174 18.0595 1.2V3.6H15.6516V2.4H2.40793V12ZM19.2635 12H10.8357V10.8H19.2635V12Z" fill="#649B4D"/>
    </svg>
    