<svg width="22" height="26" viewBox="0 0 22 26" fill="none" xmlns="http://www.w3.org/2000/svg">
    <path d="M21.9223 21.8487L19.5517 15.6901C19.5517 15.6901 19.0507 11.5116 18.5741 7.41492C18.3286 5.36347 17.4253 3.48125 16.032 2.11762C14.6387 0.753992 12.85 0.00156632 10.9979 1.6934e-06V1.6934e-06C9.14181 -0.00130318 7.34863 0.751548 5.9525 2.11826C4.55637 3.48497 3.65252 5.37231 3.4094 7.42857L2.44403 15.6901L0.0734 21.8487C0.0259759 21.9693 0.00102916 22.0994 8.14748e-05 22.2311C-0.00153705 22.3667 0.0209735 22.5014 0.0663058 22.6272C0.111638 22.7531 0.178889 22.8676 0.264154 22.9641C0.349419 23.0607 0.450999 23.1373 0.562996 23.1897C0.674993 23.242 0.795175 23.2689 0.916564 23.2689H8.55392C8.55392 23.9932 8.81141 24.6879 9.26974 25.2001C9.72807 25.7123 10.3497 26 10.9979 26C11.646 26 12.2677 25.7123 12.726 25.2001C13.1843 24.6879 13.4418 23.9932 13.4418 23.2689H21.1036C21.2535 23.2674 21.4008 23.2243 21.5321 23.1435C21.6634 23.0626 21.7747 22.9466 21.8559 22.8057C21.9371 22.6649 21.9857 22.5036 21.9973 22.3366C22.0089 22.1695 21.9831 22.0019 21.9223 21.8487V21.8487ZM10.9979 2.38971C12.2975 2.39021 13.5528 2.91795 14.5305 3.87487C15.5082 4.83179 16.1418 6.15281 16.3135 7.59244C16.6556 10.4601 16.9978 13.5326 17.1689 15.021H4.88799L5.68227 7.59244C5.85398 6.15281 6.48754 4.83179 7.46522 3.87487C8.4429 2.91795 9.69821 2.39021 10.9979 2.38971V2.38971ZM3.07946 20.4832L4.66803 16.3866H17.3277L18.9163 20.4832H3.03058H3.07946Z" fill="#649B4D"/>
    </svg>
    