<svg width="35" height="35" viewBox="0 0 35 35" fill="none" xmlns="http://www.w3.org/2000/svg">
    <path fill-rule="evenodd" clip-rule="evenodd" d="M29.504 26.2416L35 31.6996L31.6766 35L26.1453 29.507C19.1846 34.5615 9.47438 33.4166 3.89901 26.884C-1.67637 20.3514 -1.22223 10.6511 4.93944 4.66044C11.1011 -1.33022 20.8765 -1.57548 27.3349 4.09855C33.7933 9.77259 34.7401 19.4378 29.504 26.2416ZM16.4099 4.67804C9.92412 4.67804 4.66635 9.89944 4.66635 16.3404C4.66635 22.7813 9.92412 28.0027 16.4099 28.0027C22.8957 28.0027 28.1535 22.7813 28.1535 16.3404C28.1535 9.89944 22.8957 4.67804 16.4099 4.67804Z" fill="#9799A0"/>
    </svg>
    