<svg width="221" height="120" viewBox="0 0 221 120" fill="none" xmlns="http://www.w3.org/2000/svg">
<path fill-rule="evenodd" clip-rule="evenodd" d="M212.794 81.5103C209.407 88.2659 203.532 89.4412 197.312 94.8314C191.092 100.222 172.411 97.1371 165.984 100.274C148.559 108.779 148.011 118.4 118.595 119.647C108.017 120.095 98.7396 119.079 89.282 118.044C79.368 116.959 67.6158 120.275 54.2019 113.326C21.4794 96.3759 1.12294 68.5068 0.360146 53.8558C-0.239717 42.3344 9.53741 34.3937 16.1215 29.1159C30.117 17.8974 48.1345 20.9814 65.013 17.0134C88.8286 11.4146 104.096 -0.418962 121.156 0.298685C145.241 -0.233505 160.267 16.2284 179.224 17.0134C192.703 17.5715 237.861 31.5068 212.794 81.5103Z" fill="#99BE8A"/>
</svg>
